# xmcd
#
# Track frame offsets: 
#        150
#        16010
#        32685
#        49368
#        68532
#        82427
#        99040
#        115892
#        131732
#        145644
#        159217
#        174537
#        189376
#        205683
#
# Disc length: 2947 seconds
#
# Revision: 1
# Processed by: cddbd v1.5.2PL0 Copyright (c) Steve Scherf et al.
# Submitted via: ExactAudioCopy v1.0b3
#
DISCID=b00b810e
DTITLE=Various Artist - So A Schöner Tag CD1
DYEAR=2006
DGENRE=Party
TTITLE0=Grubertaler - So a schöner Tag
TTITLE1=Solid Gold - Cowboy und Indianer
TTITLE2=Solid Gold - Ein Stern, der deinen Namen trägt
TTITLE3=Die Orig. Südtiroler Spitzbuam - Gloria
TTITLE4=Die 3 Z'widren - Auf der Brugg trara (Partyversion)
TTITLE5=Mr. Franz - Sie liebt den DJ
TTITLE6=Andrea M. - Du hast mich tausend  Mal belogen
TTITLE7=Die Partygeier - Wahnsinn (Hölle, Hölle, Hölle)
TTITLE8=Ulli Bastian - Fiesta Mexicana
TTITLE9=Playa Party Project - Country Roads
TTITLE10=DJ Marco - Volle Power
TTITLE11=Alpenrocker - Fürstenfeld
TTITLE12=Ulli Bastian - Mendocino
TTITLE13=Mr. Franz - Wenn nicht jetzt, wann Dann...
EXTD=
EXTT0=
EXTT1=
EXTT2=
EXTT3=
EXTT4=
EXTT5=
EXTT6=
EXTT7=
EXTT8=
EXTT9=
EXTT10=
EXTT11=
EXTT12=
EXTT13=
PLAYORDER=
